<?xml version="1.0" encoding="utf-8"?>
<svg viewBox="4.418 10.549 473.053 61.165" xmlns="http://www.w3.org/2000/svg">
  <path d="M 1.757 60.355 L 17.633 24.736 L 25.775 24.736 L 41.702 60.355 L 33.051 60.355 L 20.025 28.908 L 23.281 28.908 L 10.204 60.355 Z M 9.695 52.722 L 11.883 46.463 L 30.202 46.463 L 32.441 52.722 Z" transform="matrix(0.974321, 0, 0, 0.982609, 2.81121, -0.380364)" style="fill: rgb(255, 200, 0); line-height: 81.4159px; white-space: pre;"/>
  <path d="M 50.997 60.355 L 50.997 31.452 L 39.599 31.452 L 39.599 24.736 L 70.639 24.736 L 70.639 31.452 L 59.241 31.452 L 59.241 60.355 Z" transform="matrix(0.974321, 0, 0, 0.982609, 2.81121, -0.380364)" style="fill: rgb(255, 200, 0); line-height: 81.4159px; white-space: pre;"/>
  <path d="M 99.475 24.736 L 107.718 24.736 L 107.718 60.355 L 99.475 60.355 Z M 83.293 60.355 L 75.05 60.355 L 75.05 24.736 L 83.293 24.736 Z M 100.085 45.751 L 82.683 45.751 L 82.683 38.78 L 100.085 38.78 Z" transform="matrix(0.974321, 0, 0, 0.982609, 2.81121, -0.380364)" style="fill: rgb(255, 200, 0); line-height: 81.4159px; white-space: pre;"/>
  <path d="M 123.741 39.085 L 140.889 39.085 L 140.889 45.497 L 123.741 45.497 Z M 124.352 53.74 L 143.739 53.74 L 143.739 60.355 L 116.159 60.355 L 116.159 24.736 L 143.078 24.736 L 143.078 31.351 L 124.352 31.351 Z" transform="matrix(0.974321, 0, 0, 0.982609, 2.81121, -0.380364)" style="fill: rgb(255, 200, 0); line-height: 81.4159px; white-space: pre;"/>
  <path d="M 150.29 60.355 L 150.29 24.736 L 157.108 24.736 L 178.124 50.382 L 174.816 50.382 L 174.816 24.736 L 182.958 24.736 L 182.958 60.355 L 176.19 60.355 L 155.124 34.709 L 158.431 34.709 L 158.431 60.355 Z" transform="matrix(0.974321, 0, 0, 0.982609, 2.81121, -0.380364)" style="fill: rgb(255, 200, 0); line-height: 81.4159px; white-space: pre;"/>
  <path d="M 186.702 60.355 L 202.578 24.736 L 210.719 24.736 L 226.646 60.355 L 217.996 60.355 L 204.969 28.908 L 208.226 28.908 L 195.148 60.355 Z M 194.64 52.722 L 196.828 46.463 L 215.146 46.463 L 217.385 52.722 Z" transform="matrix(0.974321, 0, 0, 0.982609, 2.81121, -0.380364)" style="fill: rgb(255, 200, 0); line-height: 81.4159px; white-space: pre;"/>
  <path d="M 244.742 60.355 L 244.742 24.736 L 260.16 24.736 Q 264.944 24.736 268.404 26.288 Q 271.864 27.84 273.747 30.74 Q 275.629 33.64 275.629 37.66 Q 275.629 41.629 273.747 44.53 Q 271.864 47.43 268.404 48.982 Q 264.944 50.534 260.16 50.534 L 249.322 50.534 L 252.986 46.82 L 252.986 60.355 Z M 252.986 47.736 L 249.322 43.817 L 259.702 43.817 Q 263.519 43.817 265.401 42.189 Q 267.284 40.561 267.284 37.66 Q 267.284 34.709 265.401 33.081 Q 263.519 31.452 259.702 31.452 L 249.322 31.452 L 252.986 27.534 Z" transform="matrix(0.974321, 0, 0, 0.982609, 2.81121, -0.380364)" style="fill: rgb(255, 200, 0); line-height: 81.4159px; white-space: pre;"/>
  <path d="M 281.476 60.355 L 281.476 24.736 L 296.894 24.736 Q 301.677 24.736 305.137 26.288 Q 308.597 27.84 310.48 30.74 Q 312.363 33.64 312.363 37.66 Q 312.363 41.629 310.48 44.504 Q 308.597 47.379 305.137 48.906 Q 301.677 50.432 296.894 50.432 L 286.055 50.432 L 289.719 46.82 L 289.719 60.355 Z M 304.119 60.355 L 295.215 47.43 L 304.018 47.43 L 313.024 60.355 Z M 289.719 47.736 L 286.055 43.868 L 296.436 43.868 Q 300.252 43.868 302.135 42.215 Q 304.018 40.561 304.018 37.66 Q 304.018 34.709 302.135 33.081 Q 300.252 31.452 296.436 31.452 L 286.055 31.452 L 289.719 27.534 Z" transform="matrix(0.974321, 0, 0, 0.982609, 2.81121, -0.380364)" style="fill: rgb(255, 200, 0); line-height: 81.4159px; white-space: pre;"/>
  <path d="M 336.165 60.966 Q 331.941 60.966 328.354 59.592 Q 324.766 58.218 322.146 55.724 Q 319.525 53.231 318.075 49.873 Q 316.625 46.514 316.625 42.545 Q 316.625 38.576 318.075 35.218 Q 319.525 31.859 322.171 29.366 Q 324.817 26.873 328.379 25.499 Q 331.941 24.125 336.114 24.125 Q 340.337 24.125 343.874 25.499 Q 347.41 26.873 350.031 29.366 Q 352.651 31.859 354.127 35.192 Q 355.603 38.525 355.603 42.545 Q 355.603 46.514 354.127 49.898 Q 352.651 53.282 350.031 55.75 Q 347.41 58.218 343.874 59.592 Q 340.337 60.966 336.165 60.966 Z M 336.114 53.944 Q 338.505 53.944 340.515 53.129 Q 342.525 52.315 344.052 50.789 Q 345.578 49.262 346.418 47.176 Q 347.258 45.09 347.258 42.545 Q 347.258 40.001 346.418 37.915 Q 345.578 35.828 344.077 34.302 Q 342.576 32.775 340.541 31.961 Q 338.505 31.147 336.114 31.147 Q 333.722 31.147 331.712 31.961 Q 329.702 32.775 328.176 34.302 Q 326.649 35.828 325.81 37.915 Q 324.97 40.001 324.97 42.545 Q 324.97 45.039 325.81 47.15 Q 326.649 49.262 328.15 50.789 Q 329.651 52.315 331.687 53.129 Q 333.722 53.944 336.114 53.944 Z" transform="matrix(0.974321, 0, 0, 0.982609, 2.81121, -0.380364)" style="fill: rgb(255, 200, 0); line-height: 81.4159px; white-space: pre;"/>
  <path d="M 367.591 60.966 Q 363.979 60.966 360.951 59.617 Q 357.923 58.269 355.99 55.775 L 360.569 50.28 Q 362.045 52.213 363.673 53.206 Q 365.302 54.198 367.184 54.198 Q 372.222 54.198 372.222 48.295 L 372.222 31.351 L 359.704 31.351 L 359.704 24.736 L 380.414 24.736 L 380.414 47.837 Q 380.414 54.452 377.158 57.709 Q 373.901 60.966 367.591 60.966 Z" transform="matrix(0.974321, 0, 0, 0.982609, 2.81121, -0.380364)" style="fill: rgb(255, 200, 0); line-height: 81.4159px; white-space: pre;"/>
  <path d="M 396.127 39.085 L 413.275 39.085 L 413.275 45.497 L 396.127 45.497 Z M 396.738 53.74 L 416.125 53.74 L 416.125 60.355 L 388.545 60.355 L 388.545 24.736 L 415.463 24.736 L 415.463 31.351 L 396.738 31.351 Z" transform="matrix(0.974321, 0, 0, 0.982609, 2.81121, -0.380364)" style="fill: rgb(255, 200, 0); line-height: 81.4159px; white-space: pre;"/>
  <path d="M 439.722 60.966 Q 435.6 60.966 432.064 59.617 Q 428.527 58.269 425.932 55.775 Q 423.337 53.282 421.887 49.924 Q 420.437 46.565 420.437 42.545 Q 420.437 38.525 421.887 35.167 Q 423.337 31.809 425.958 29.315 Q 428.578 26.822 432.089 25.473 Q 435.6 24.125 439.773 24.125 Q 444.403 24.125 448.143 25.728 Q 451.883 27.331 454.428 30.435 L 449.136 35.32 Q 447.304 33.233 445.065 32.19 Q 442.826 31.147 440.18 31.147 Q 437.687 31.147 435.6 31.961 Q 433.514 32.775 431.987 34.302 Q 430.461 35.828 429.621 37.915 Q 428.782 40.001 428.782 42.545 Q 428.782 45.09 429.621 47.176 Q 430.461 49.262 431.987 50.789 Q 433.514 52.315 435.6 53.129 Q 437.687 53.944 440.18 53.944 Q 442.826 53.944 445.065 52.9 Q 447.304 51.857 449.136 49.72 L 454.428 54.605 Q 451.883 57.709 448.143 59.337 Q 444.403 60.966 439.722 60.966 Z" transform="matrix(0.974321, 0, 0, 0.982609, 2.81121, -0.380364)" style="fill: rgb(255, 200, 0); line-height: 81.4159px; white-space: pre;"/>
  <path d="M 466.995 60.355 L 466.995 31.452 L 455.597 31.452 L 455.597 24.736 L 486.636 24.736 L 486.636 31.452 L 475.238 31.452 L 475.238 60.355 Z" transform="matrix(0.974321, 0, 0, 0.982609, 2.81121, -0.380364)" style="fill: rgb(255, 200, 0); line-height: 81.4159px; white-space: pre;"/>
</svg>