<?xml version="1.0" encoding="utf-8"?>
<svg viewBox="281.845 14.347 55.561 18.022" xmlns="http://www.w3.org/2000/svg">
  <path d="M 282.038 28.765 L 286.718 18.265 L 289.118 18.265 L 293.813 28.765 L 291.263 28.765 L 287.423 19.495 L 288.383 19.495 L 284.528 28.765 Z M 284.378 26.515 L 285.023 24.67 L 290.423 24.67 L 291.083 26.515 Z" style="fill: rgb(255, 200, 0); paint-order: fill; white-space: pre;"/>
  <path d="M 294.891 28.765 L 294.891 18.265 L 299.661 18.265 Q 301.371 18.265 302.676 18.917 Q 303.981 19.57 304.716 20.74 Q 305.451 21.91 305.451 23.515 Q 305.451 25.105 304.716 26.282 Q 303.981 27.46 302.676 28.112 Q 301.371 28.765 299.661 28.765 Z M 297.321 26.77 L 299.541 26.77 Q 300.591 26.77 301.363 26.372 Q 302.136 25.975 302.563 25.24 Q 302.991 24.505 302.991 23.515 Q 302.991 22.51 302.563 21.782 Q 302.136 21.055 301.363 20.657 Q 300.591 20.26 299.541 20.26 L 297.321 20.26 Z" style="fill: rgb(255, 200, 0); paint-order: fill; white-space: pre;"/>
  <path d="M 307.27 28.765 L 307.27 18.265 L 309.28 18.265 L 313.75 25.675 L 312.685 25.675 L 317.08 18.265 L 319.075 18.265 L 319.105 28.765 L 316.825 28.765 L 316.81 21.76 L 317.23 21.76 L 313.72 27.655 L 312.625 27.655 L 309.04 21.76 L 309.55 21.76 L 309.55 28.765 Z" style="fill: rgb(255, 200, 0); paint-order: fill; white-space: pre;"/>
  <path d="M 321.588 28.765 L 321.588 18.265 L 324.018 18.265 L 324.018 28.765 Z" style="fill: rgb(255, 200, 0); paint-order: fill; white-space: pre;"/>
  <path d="M 326.511 28.765 L 326.511 18.265 L 328.521 18.265 L 334.716 25.825 L 333.741 25.825 L 333.741 18.265 L 336.141 18.265 L 336.141 28.765 L 334.146 28.765 L 327.936 21.205 L 328.911 21.205 L 328.911 28.765 Z" style="fill: rgb(255, 200, 0); paint-order: fill; white-space: pre;"/>
</svg>